<svg id="Layer_1" data-name="Layer 1" xmlns="http://www.w3.org/2000/svg" viewBox="0 0 600 240"><defs><style>.cls-1{fill:#fff;}</style></defs><title>96Boards-Logo</title><path class="cls-1" d="M205.54,74.51c5.32-1.09,15-1.91,24.43-1.91,12.42,0,20.06,1.5,26.34,5.87a19.4,19.4,0,0,1,9.55,17.19c0,8.46-5.32,16.24-15.28,19.92v0.27c9.69,2.46,18.56,10.1,18.56,22.79a23.87,23.87,0,0,1-8.87,19c-6.55,5.73-17.33,8.6-34.12,8.6A162.62,162.62,0,0,1,205.54,165V74.51Zm16.65,36.3h8.6c11.6,0,18.15-5.46,18.15-13.24,0-8.6-6.55-12.56-17.19-12.56a45.63,45.63,0,0,0-9.55.68v25.11Zm0,42.3a74.14,74.14,0,0,0,8.87.41c10.78,0,20.33-4.09,20.33-15.42,0-10.64-9.28-15-20.88-15h-8.33v30Z"/><path class="cls-1" d="M344.17,131.42c0,24.43-17.2,35.34-34.12,35.34-18.83,0-33.3-13-33.3-34.25,0-21.84,14.33-35.21,34.39-35.21C330.94,97.3,344.17,111.22,344.17,131.42Zm-50.08.68c0,12.83,6.28,22.52,16.51,22.52,9.55,0,16.24-9.42,16.24-22.79,0-10.37-4.64-22.24-16.1-22.24C298.87,109.58,294.09,121,294.09,132.1Z"/><path class="cls-1" d="M392.78,165.26l-1.09-7.37h-0.41c-4.09,5.19-11.05,8.87-19.65,8.87-13.37,0-20.88-9.69-20.88-19.79,0-16.78,14.88-25.25,39.44-25.11v-1.09c0-4.37-1.77-11.6-13.51-11.6a35.2,35.2,0,0,0-17.88,4.91l-3.28-10.92c4.91-3,13.51-5.87,24-5.87,21.29,0,27.43,13.51,27.43,28v24a106.61,106.61,0,0,0,1,16H392.78Zm-2.18-32.48c-11.87-.27-23.2,2.32-23.2,12.42,0,6.55,4.23,9.55,9.55,9.55a13.6,13.6,0,0,0,13.1-9.14,12.09,12.09,0,0,0,.55-3.68v-9.14Z"/><path class="cls-1" d="M421.4,120.23c0-9-.14-15.42-0.55-21.42h14.6L436,111.49h0.55c3.27-9.42,11.05-14.19,18.15-14.19a17.64,17.64,0,0,1,4,.41v15.83a23.34,23.34,0,0,0-4.91-.55c-8.05,0-13.51,5.19-15,12.69a28.86,28.86,0,0,0-.54,5.19v34.39H421.4v-45Z"/><path class="cls-1" d="M528.45,68.37v78.2c0,6.82.27,14.19,0.55,18.7H514l-0.68-10.51H513c-4,7.37-12,12-21.7,12-15.83,0-28.39-13.51-28.39-34-0.14-22.24,13.78-35.48,29.75-35.48,9.14,0,15.69,3.82,18.7,8.73h0.27V68.37h16.78Zm-16.78,58.13a23.7,23.7,0,0,0-.41-4.37c-1.5-6.55-6.82-11.87-14.47-11.87-10.78,0-16.79,9.55-16.79,22,0,12.15,6,21,16.65,21a14.8,14.8,0,0,0,14.47-11.87,18.73,18.73,0,0,0,.55-4.91v-10Z"/><path class="cls-1" d="M542.54,149.84a37.44,37.44,0,0,0,17.06,4.78c7.37,0,10.64-3,10.64-7.37s-2.73-6.82-10.92-9.69c-13-4.5-18.42-11.6-18.29-19.38,0-11.74,9.69-20.88,25.11-20.88a39,39,0,0,1,17.6,4l-3.28,11.87a29.84,29.84,0,0,0-14.06-3.82c-6,0-9.28,2.87-9.28,7s3.14,6.28,11.6,9.28c12,4.37,17.6,10.51,17.74,20.33,0,12-9.42,20.74-27,20.74-8.05,0-15.28-1.91-20.2-4.64Z"/><path class="cls-1" d="M160.51,79.33c-8.26-7.12-19.12-11.59-32.29-13.28l-4.26.62L163,20H126.37L95,57.46c-2.55,3.14-4.89,5.55-7,8.42a53.53,53.53,0,0,1,20.71,12.64,54.82,54.82,0,0,1,11.17,15.94c0.63-.05,1.26-0.16,1.9-0.16a21.7,21.7,0,0,1,15.72,6.52,21.91,21.91,0,0,1,0,31.47,21.72,21.72,0,0,1-13.83,6.46,69.54,69.54,0,0,1-5,13.82,123.43,123.43,0,0,1-9.91,16.13,60.59,60.59,0,0,0,12.38,1.24c15.42,0,28.32-4.88,38.34-14.5,10.49-10.34,15.82-24.41,15.82-41.8C175.26,99.17,170.43,87.95,160.51,79.33Z"/><path class="cls-1" d="M84.63,120.25A16.66,16.66,0,0,0,79.38,108,16.84,16.84,0,0,0,69,102.83a62,62,0,0,0-1,11.23,65.08,65.08,0,0,0,3.89,23.08,17.34,17.34,0,0,0,7.56-4.57A16.66,16.66,0,0,0,84.63,120.25Z"/><path class="cls-1" d="M105.32,81.61c-9.9-9.8-22.57-14.77-37.65-14.77-15.41,0-28.31,4.92-38.33,14.64-10.5,10.23-15.82,24.22-15.82,41.58,0,14.55,4.82,25.75,14.73,34.24,8.27,7.12,19.13,11.59,32.3,13.27l4.25,0.53-1.93,2.85L25.78,220H62.4l31.35-39.07c9.82-12.09,16.75-22.41,20.6-30.23a63.37,63.37,0,0,0,6.5-27.86C120.84,105.9,115.62,92,105.32,81.61ZM82.74,135.93a22,22,0,0,1-31.46,0,21.81,21.81,0,0,1,0-31.36,22,22,0,0,1,31.46,0A21.8,21.8,0,0,1,82.74,135.93Z"/></svg>